<?xml version="1.0" encoding="utf-8"?>
<!-- Generator: Adobe Illustrator 21.0.2, SVG Export Plug-In . SVG Version: 6.00 Build 0)  -->
<svg version="1.1" id="Layer_1" xmlns="http://www.w3.org/2000/svg" xmlns:xlink="http://www.w3.org/1999/xlink" x="0px" y="0px"
	 viewBox="0 0 128 128" style="enable-background:new 0 0 128 128;" xml:space="preserve">
<style type="text/css">
	.st0{fill:#888888;}
</style>
<g>
	<path class="st0" d="M118.6,118.8H89.3L52.2,67.6c-2.8,0.1-5,0.2-6.7,0.2c-0.7,0-1.5,0-2.3,0c-0.8,0-1.6-0.1-2.5-0.1v31.9
		c0,6.9,0.8,11.2,2.3,12.9c2,2.4,5.1,3.6,9.2,3.6h4.3v3h-47v-3h4.1c4.6,0,8-1.5,9.9-4.5c1.1-1.7,1.7-5.6,1.7-11.9V28.6
		c0-6.9-0.8-11.2-2.3-12.9c-2.1-2.4-5.2-3.6-9.4-3.6H9.4v-3h40c11.6,0,20.2,0.8,25.8,2.5c5.5,1.7,10.2,4.8,14.1,9.4
		c3.9,4.6,5.8,10,5.8,16.3c0,6.7-2.2,12.6-6.6,17.6c-4.4,5-11.2,8.5-20.4,10.5l22.6,31.5c5.2,7.2,9.6,12,13.3,14.4
		c3.7,2.4,8.6,3.9,14.6,4.5V118.8z M40.7,62.5c1,0,1.9,0,2.7,0c0.8,0,1.4,0,1.9,0c10.5,0,18.3-2.3,23.7-6.8c5.3-4.5,8-10.3,8-17.3
		c0-6.8-2.1-12.4-6.4-16.7s-10-6.4-17-6.4c-3.1,0-7.4,0.5-12.7,1.5V62.5z"/>
</g>
</svg>
