<?xml version="1.0" encoding="utf-8"?>
<!-- Generator: Adobe Illustrator 21.0.2, SVG Export Plug-In . SVG Version: 6.00 Build 0)  -->
<svg version="1.1" id="Layer_1" xmlns="http://www.w3.org/2000/svg" xmlns:xlink="http://www.w3.org/1999/xlink" x="0px" y="0px"
	 viewBox="0 0 128 128" style="enable-background:new 0 0 128 128;" xml:space="preserve">
<style type="text/css">
	.st0{fill:#FFFFFF;}
</style>
<rect x="12" y="12" class="st0" width="104" height="104"/>
<g>
	<path d="M58.9,44.9c0-13.6-13.7-14-15.3-14H28.4v28h15.3C46.2,58.9,58.9,58.1,58.9,44.9z"/>
	<path d="M8,120h112V8H8V120z M74.2,58.9h25.5V23.3h10.2v81.5H99.6V69.1H74.2V58.9z M18.2,20.7h25.5c8.8,0,25.5,5.1,25.5,24.2
		c0,9.5-4.1,15.6-9.4,19.2c5.2,3.9,9.4,10.2,9.4,20.2v20.4H58.9V84.4c0-14.4-12.7-15.2-15.3-15.3H28.4v35.6H18.2V20.7z"/>
</g>
</svg>
